<mxfile host="Electron" agent="Mozilla/5.0 (Macintosh; Intel Mac OS X 10_15_7) AppleWebKit/537.36 (KHTML, like Gecko) draw.io/24.7.17 Chrome/128.0.6613.36 Electron/32.0.1 Safari/537.36" version="24.7.17">
  <diagram name="Page-1" id="3Wxvi1MK_Jsnat26sFQB">
    <mxGraphModel dx="1298" dy="328" grid="1" gridSize="10" guides="1" tooltips="1" connect="1" arrows="1" fold="1" page="1" pageScale="1" pageWidth="827" pageHeight="1169" math="1" shadow="0">
      <root>
        <mxCell id="0" />
        <mxCell id="1" parent="0" />
        <mxCell id="nikL2nRq97TLOzzbw6aR-1" value="&lt;font style=&quot;font-size: 10px;&quot;&gt;$$\dots$$&lt;/font&gt;" style="edgeStyle=orthogonalEdgeStyle;rounded=0;orthogonalLoop=1;jettySize=auto;html=1;entryX=0;entryY=0.5;entryDx=0;entryDy=0;strokeWidth=2;" edge="1" parent="1" source="nikL2nRq97TLOzzbw6aR-2" target="nikL2nRq97TLOzzbw6aR-8">
          <mxGeometry relative="1" as="geometry" />
        </mxCell>
        <mxCell id="nikL2nRq97TLOzzbw6aR-2" value="$$\mathbf{x}_{0}$$" style="ellipse;whiteSpace=wrap;html=1;aspect=fixed;fontSize=20;" vertex="1" parent="1">
          <mxGeometry x="-760" y="160" width="40" height="40" as="geometry" />
        </mxCell>
        <mxCell id="nikL2nRq97TLOzzbw6aR-3" value="&lt;font style=&quot;font-size: 10px;&quot;&gt;$$\dots$$&lt;/font&gt;" style="edgeStyle=orthogonalEdgeStyle;rounded=0;orthogonalLoop=1;jettySize=auto;html=1;entryX=0;entryY=0.5;entryDx=0;entryDy=0;strokeWidth=2;" edge="1" parent="1" source="nikL2nRq97TLOzzbw6aR-4" target="nikL2nRq97TLOzzbw6aR-13">
          <mxGeometry x="0.0085" relative="1" as="geometry">
            <mxPoint as="offset" />
          </mxGeometry>
        </mxCell>
        <mxCell id="nikL2nRq97TLOzzbw6aR-4" value="$$\mathbf{x}_T$$" style="ellipse;whiteSpace=wrap;html=1;aspect=fixed;fontSize=20;" vertex="1" parent="1">
          <mxGeometry x="-460" y="160.5" width="40" height="40" as="geometry" />
        </mxCell>
        <mxCell id="nikL2nRq97TLOzzbw6aR-5" value="&lt;font style=&quot;font-size: 10px;&quot;&gt;$$\dots$$&lt;/font&gt;" style="edgeStyle=orthogonalEdgeStyle;rounded=0;orthogonalLoop=1;jettySize=auto;html=1;entryX=0;entryY=0.5;entryDx=0;entryDy=0;strokeWidth=2;" edge="1" parent="1" source="nikL2nRq97TLOzzbw6aR-6" target="nikL2nRq97TLOzzbw6aR-4">
          <mxGeometry x="-0.0085" relative="1" as="geometry">
            <mxPoint as="offset" />
          </mxGeometry>
        </mxCell>
        <mxCell id="nikL2nRq97TLOzzbw6aR-6" value="$$\mathbf{x}_t$$" style="ellipse;whiteSpace=wrap;html=1;aspect=fixed;fontSize=20;" vertex="1" parent="1">
          <mxGeometry x="-560" y="160" width="40" height="40" as="geometry" />
        </mxCell>
        <mxCell id="nikL2nRq97TLOzzbw6aR-7" style="edgeStyle=orthogonalEdgeStyle;rounded=0;orthogonalLoop=1;jettySize=auto;html=1;entryX=0;entryY=0.5;entryDx=0;entryDy=0;strokeWidth=1;" edge="1" parent="1" source="nikL2nRq97TLOzzbw6aR-8" target="nikL2nRq97TLOzzbw6aR-6">
          <mxGeometry relative="1" as="geometry" />
        </mxCell>
        <mxCell id="nikL2nRq97TLOzzbw6aR-8" value="$$\mathbf{x}_{t-1}$$" style="ellipse;whiteSpace=wrap;html=1;aspect=fixed;fontSize=16;" vertex="1" parent="1">
          <mxGeometry x="-660" y="160" width="40" height="40" as="geometry" />
        </mxCell>
        <mxCell id="nikL2nRq97TLOzzbw6aR-9" value="&lt;font style=&quot;font-size: 10px;&quot; color=&quot;#000000&quot;&gt;$$\dots$$&lt;/font&gt;" style="edgeStyle=orthogonalEdgeStyle;rounded=0;orthogonalLoop=1;jettySize=auto;html=1;entryX=0;entryY=0.5;entryDx=0;entryDy=0;strokeWidth=2;fontColor=#b95450;" edge="1" parent="1" source="nikL2nRq97TLOzzbw6aR-10" target="nikL2nRq97TLOzzbw6aR-11">
          <mxGeometry relative="1" as="geometry">
            <mxPoint as="offset" />
          </mxGeometry>
        </mxCell>
        <mxCell id="nikL2nRq97TLOzzbw6aR-10" value="$$\mathbf{x}_{t-1}$$" style="ellipse;whiteSpace=wrap;html=1;aspect=fixed;fontSize=16;" vertex="1" parent="1">
          <mxGeometry x="-260" y="160.5" width="40" height="40" as="geometry" />
        </mxCell>
        <mxCell id="nikL2nRq97TLOzzbw6aR-11" value="$$\mathbf{x}_{0}$$" style="ellipse;whiteSpace=wrap;html=1;aspect=fixed;fontSize=20;" vertex="1" parent="1">
          <mxGeometry x="-180" y="160.5" width="40" height="40" as="geometry" />
        </mxCell>
        <mxCell id="nikL2nRq97TLOzzbw6aR-12" style="edgeStyle=orthogonalEdgeStyle;rounded=0;orthogonalLoop=1;jettySize=auto;html=1;entryX=0;entryY=0.5;entryDx=0;entryDy=0;strokeWidth=1;exitX=1;exitY=0.5;exitDx=0;exitDy=0;" edge="1" parent="1" source="nikL2nRq97TLOzzbw6aR-13" target="nikL2nRq97TLOzzbw6aR-10">
          <mxGeometry relative="1" as="geometry">
            <mxPoint x="-294" y="180" as="sourcePoint" />
            <mxPoint x="-209.00000000000387" y="180" as="targetPoint" />
          </mxGeometry>
        </mxCell>
        <mxCell id="nikL2nRq97TLOzzbw6aR-13" value="$$\mathbf{x}_t$$" style="ellipse;whiteSpace=wrap;html=1;aspect=fixed;fontSize=20;" vertex="1" parent="1">
          <mxGeometry x="-360" y="160" width="40" height="40" as="geometry" />
        </mxCell>
        <mxCell id="nikL2nRq97TLOzzbw6aR-14" style="edgeStyle=orthogonalEdgeStyle;rounded=0;orthogonalLoop=1;jettySize=auto;html=1;endArrow=circlePlus;endFill=0;" edge="1" parent="1">
          <mxGeometry relative="1" as="geometry">
            <mxPoint x="-590" y="172" as="targetPoint" />
            <mxPoint x="-590" y="210" as="sourcePoint" />
          </mxGeometry>
        </mxCell>
        <mxCell id="nikL2nRq97TLOzzbw6aR-16" style="edgeStyle=orthogonalEdgeStyle;rounded=0;orthogonalLoop=1;jettySize=auto;html=1;endArrow=none;endFill=0;" edge="1" parent="1">
          <mxGeometry relative="1" as="geometry">
            <mxPoint x="-290" y="180" as="targetPoint" />
            <mxPoint x="-290" y="210" as="sourcePoint" />
          </mxGeometry>
        </mxCell>
        <mxCell id="nikL2nRq97TLOzzbw6aR-17" value="-" style="ellipse;whiteSpace=wrap;html=1;" vertex="1" parent="1">
          <mxGeometry x="-296.5" y="172.5" width="15" height="15" as="geometry" />
        </mxCell>
      </root>
    </mxGraphModel>
  </diagram>
</mxfile>
